<svg width="64" height="64" viewBox="0 0 64 64" fill="none" xmlns="http://www.w3.org/2000/svg">
<path d="M34.6667 48H8.00004C7.2928 48 6.61452 47.7191 6.11442 47.219C5.61433 46.7189 5.33337 46.0406 5.33337 45.3333V10.6667C5.33337 9.95942 5.61433 9.28115 6.11442 8.78105C6.61452 8.28095 7.2928 8 8.00004 8H56C56.7073 8 57.3856 8.28095 57.8857 8.78105C58.3858 9.28115 58.6667 9.95942 58.6667 10.6667V45.3333C58.6667 46.0406 58.3858 46.7189 57.8857 47.219C57.3856 47.7191 56.7073 48 56 48H45.3334M16 18.6667H48M16 28H24M16 37.3333H21.3334" stroke="white" stroke-width="4" stroke-linecap="round" stroke-linejoin="round"/>
<path d="M40 44C42.1217 44 44.1566 43.1571 45.6569 41.6569C47.1571 40.1566 48 38.1217 48 36C48 33.8783 47.1571 31.8434 45.6569 30.3431C44.1566 28.8429 42.1217 28 40 28C37.8783 28 35.8434 28.8429 34.3431 30.3431C32.8429 31.8434 32 33.8783 32 36C32 38.1217 32.8429 40.1566 34.3431 41.6569C35.8434 43.1571 37.8783 44 40 44Z" stroke="white" stroke-width="4"/>
<path d="M40.0001 53.3333L45.3334 56V41.9626C45.3334 41.9626 43.8134 44 40.0001 44C36.1867 44 34.6667 42 34.6667 42V56L40.0001 53.3333Z" stroke="white" stroke-width="4" stroke-linecap="round" stroke-linejoin="round"/>
</svg>
