<svg width="106" height="118" viewBox="0 0 106 118" fill="none" xmlns="http://www.w3.org/2000/svg">
<path d="M52.5969 40.6245L46.9517 36.0581L42.113 33.7748H38.0807L34.4517 35.297M24.7743 47.4742L28.4033 41.5759L32.6372 36.0581L34.4517 35.297M24.7743 47.4742L21.1452 56.0363L19.3307 63.2665V66.6913L21.1452 69.7356L32.6372 81.342L35.863 85.3377L40.0969 87.4306H44.1291L48.7662 86.0988L52.5969 83.435M24.7743 47.4742H17.7178L14.2904 45.7618L11.6694 41.5759L10.6614 36.0581L11.6694 31.3013L16.7098 28.0668H22.5565L29.613 30.5403L34.4517 35.297" stroke="white" stroke-width="3" stroke-linecap="round" stroke-linejoin="round"/>
<path d="M11.871 42.9078L7.23387 48.2354L3 58.3196L12.6774 53.9434L5.62097 60.6028L4.00806 73.5411L6.42742 77.3465L9.04839 68.5941L7.23387 78.2978L11.871 88.9529L17.7177 93.7096L20.3387 95.422L16.7097 84.767L21.3468 95.9928L30.621 103.604L31.629 105.316V95.0415L35.2581 102.272L42.1129 105.316L39.4919 99.2274L38.2823 92.1875L38.6855 89.5237L39.4919 88.0015V89.5237L41.3065 93.1388L43.7258 95.9928L47.3548 98.2761L51.9919 99.2274H53.6048" stroke="white" stroke-width="3" stroke-linecap="round"/>
<path d="M40.9033 102.652L48.5712 110.852L53.8065 116.161" stroke="white" stroke-width="3" stroke-linejoin="round"/>
<path d="M25.7823 28.828V20.8367L53.4033 11.3232" stroke="white" stroke-width="3"/>
<path d="M21.1454 28.0668L7.03247 21.788L53.6051 2" stroke="white" stroke-width="3"/>
<path d="M42.7178 58.3196L41.5081 54.8948M41.5081 54.8948L41.1048 53.7532L36.6694 53.1824L33.2419 54.324L35.2581 57.7488L38.6855 59.4612L41.9113 57.7488L39.6936 55.8461L34.6532 54.324L39.6936 54.8948H41.5081ZM39.0887 58.7002L37.4758 57.178L35.2581 54.8948L40.2984 57.7488" stroke="white" stroke-width="3"/>
<path d="M31.4275 47.6646L36.871 45.6798M36.871 45.6798L40.2985 44.4301L40.9033 45.9522L37.6775 45.7343L36.871 45.6798Z" stroke="white" stroke-width="3" stroke-linecap="round" stroke-linejoin="round"/>
<path d="M52.0264 72.0139L51.8562 75.3869L46.7971 72.4141L52.0264 72.0139Z" stroke="white" stroke-width="3" stroke-linecap="round" stroke-linejoin="round"/>
<path d="M53.4031 40.6245L59.0483 36.0581L63.887 33.7748H67.9193L71.5483 35.297M81.2257 47.4742L77.5967 41.5759L73.3628 36.0581L71.5483 35.297M81.2257 47.4742L84.8548 56.0363L86.6693 63.2665V66.6913L84.8548 69.7356L73.3628 81.342L70.137 85.3377L65.9031 87.4306H61.8709L57.2338 86.0988L53.4031 83.435M81.2257 47.4742H88.2822L91.7096 45.7618L94.3306 41.5759L95.3386 36.0581L94.3306 31.3013L89.2902 28.0668H83.4435L76.387 30.5403L71.5483 35.297" stroke="white" stroke-width="3" stroke-linecap="round" stroke-linejoin="round"/>
<path d="M94.1292 42.9078L98.7663 48.2354L103 58.3196L93.3227 53.9434L100.379 60.6028L101.992 73.5411L99.5727 77.3465L96.9517 68.5941L98.7663 78.2978L94.1292 88.9529L88.2824 93.7096L85.4598 95.6123L89.2904 84.767L84.6533 95.9928L75.3792 103.604L74.3711 105.316V95.0415L70.7421 102.272L63.8872 105.316L66.5082 99.2274L67.7179 92.1875L67.3146 89.5237L66.5082 88.0015V89.5237L64.6937 93.1388L62.2743 95.9928L58.6453 98.2761L54.0082 99.2274H52.3953" stroke="white" stroke-width="3" stroke-linecap="round"/>
<path d="M65.0968 102.843L57.0323 111.405L52.5968 115.971" stroke="white" stroke-width="3" stroke-linejoin="round"/>
<path d="M80.2177 28.828V20.8367L52.7983 11.3232" stroke="white" stroke-width="3"/>
<path d="M84.855 28.0668L98.9679 21.788L52.7985 2" stroke="white" stroke-width="3"/>
<path d="M63.0808 58.3196L64.492 54.8948M64.492 54.8948L64.8953 53.7532L69.3308 53.1824L72.7582 54.324L70.742 57.7488L67.3146 59.4612L64.0888 57.7488L66.3066 55.8461L71.3469 54.324L66.3066 54.8948H64.492ZM66.9114 58.8904L68.5243 57.178L70.742 54.8948L65.9033 57.7488" stroke="white" stroke-width="3"/>
<path d="M74.5728 47.6646L69.1292 45.6798M69.1292 45.6798L65.7018 44.4301L65.0969 45.9522L68.3228 45.7343L69.1292 45.6798Z" stroke="white" stroke-width="3" stroke-linecap="round" stroke-linejoin="round"/>
<path d="M53.8118 72.0015L54.0713 75.4295L59.2031 72.4141L53.8118 72.0015Z" stroke="white" stroke-width="3" stroke-linecap="round"/>
</svg>
