<svg width="64" height="64" viewBox="0 0 64 64" fill="none" xmlns="http://www.w3.org/2000/svg">
<path d="M56.9475 13.155L32.9475 5.155C32.3329 4.94752 31.6671 4.94752 31.0525 5.155L7.05249 13.155C6.47983 13.3447 5.97765 13.7026 5.6115 14.182C5.24535 14.6614 5.03224 15.2401 4.99999 15.8425C4.99724 15.895 4.99724 15.9475 4.99999 16V36C4.99999 36.7956 5.31606 37.5587 5.87867 38.1213C6.44128 38.6839 7.20434 39 7.99999 39C8.79564 39 9.5587 38.6839 10.1213 38.1213C10.6839 37.5587 11 36.7956 11 36V20.1625L16.9275 22.1375C15.0879 25.6587 14.5412 29.7135 15.3826 33.5962C16.224 37.4789 18.4002 40.9437 21.5325 43.3875C17.4336 45.4088 13.9646 48.5113 11.5 52.36C11.2781 52.6899 11.1239 53.0606 11.0465 53.4505C10.9691 53.8405 10.9699 54.2419 11.049 54.6316C11.1281 55.0212 11.2839 55.3912 11.5072 55.7201C11.7306 56.049 12.0171 56.3303 12.3501 56.5475C12.6831 56.7647 13.056 56.9135 13.447 56.9853C13.8381 57.0572 14.2395 57.0505 14.6279 56.9659C15.0164 56.8812 15.3841 56.7202 15.7098 56.4921C16.0355 56.2641 16.3126 55.9736 16.525 55.6375C20.0925 50.1475 25.75 47 32 47C38.25 47 43.9075 50.1475 47.4875 55.6375C47.6999 55.9736 47.977 56.2641 48.3027 56.4921C48.6283 56.7202 48.9961 56.8812 49.3846 56.9659C49.773 57.0505 50.1744 57.0572 50.5655 56.9853C50.9565 56.9135 51.3294 56.7647 51.6624 56.5475C51.9954 56.3303 52.2819 56.049 52.5052 55.7201C52.7286 55.3912 52.8844 55.0212 52.9635 54.6316C53.0426 54.2419 53.0434 53.8405 52.966 53.4505C52.8886 53.0606 52.7344 52.6899 52.5125 52.36C50.0456 48.5068 46.572 45.4015 42.4675 43.38C45.5998 40.9362 47.776 37.4714 48.6174 33.5887C49.4588 29.706 48.9121 25.6512 47.0725 22.13L56.9475 18.8375C57.5441 18.6379 58.0628 18.2558 58.4304 17.7453C58.7979 17.2347 58.9957 16.6216 58.9957 15.9925C58.9957 15.3634 58.7979 14.7502 58.4304 14.2397C58.0628 13.7292 57.5441 13.3471 56.9475 13.1475V13.155ZM32 11.155L46.5125 16L32 20.8375L17.5 16L32 11.155ZM43 30C43.0003 31.7086 42.6026 33.3937 41.8384 34.9219C41.0743 36.4501 39.9646 37.7792 38.5974 38.804C37.2303 39.8287 35.6432 40.5209 33.962 40.8257C32.2808 41.1304 30.5518 41.0394 28.9119 40.5597C27.272 40.08 25.7664 39.225 24.5145 38.0623C23.2625 36.8996 22.2986 35.4612 21.6992 33.8612C21.0998 32.2613 20.8813 30.5436 21.0611 28.8445C21.2409 27.1454 21.814 25.5116 22.735 24.0725L31.0525 26.845C31.6673 27.0516 32.3327 27.0516 32.9475 26.845L41.265 24.0725C42.3995 25.8412 43.0017 27.8987 43 30Z" fill="white"/>
</svg>
