<svg width="64" height="64" viewBox="0 0 64 64" fill="none" xmlns="http://www.w3.org/2000/svg">
<path d="M32 5.33333C46.728 5.33333 58.6667 17.272 58.6667 32C58.6667 46.728 46.728 58.6667 32 58.6667C17.272 58.6667 5.33337 46.728 5.33337 32C5.33337 17.272 17.272 5.33333 32 5.33333ZM32 10.6667C26.3421 10.6667 20.9159 12.9143 16.9151 16.915C12.9143 20.9158 10.6667 26.342 10.6667 32C10.6667 37.6579 12.9143 43.0842 16.9151 47.0849C20.9159 51.0857 26.3421 53.3333 32 53.3333C37.658 53.3333 43.0842 51.0857 47.085 47.0849C51.0858 43.0842 53.3334 37.6579 53.3334 32C53.3334 26.342 51.0858 20.9158 47.085 16.915C43.0842 12.9143 37.658 10.6667 32 10.6667ZM32 16C32.6532 16.0001 33.2836 16.2399 33.7717 16.6739C34.2598 17.1079 34.5716 17.706 34.648 18.3547L34.6667 18.6667V30.896L41.8854 38.1147C42.3636 38.5945 42.6413 39.2385 42.662 39.9157C42.6827 40.5929 42.4448 41.2526 41.9967 41.7607C41.5486 42.2689 40.9239 42.5875 40.2494 42.6517C39.575 42.716 38.9013 42.5211 38.3654 42.1067L38.1147 41.8853L30.1147 33.8853C29.7003 33.4705 29.4341 32.9307 29.3574 32.3493L29.3334 32V18.6667C29.3334 17.9594 29.6143 17.2811 30.1144 16.781C30.6145 16.2809 31.2928 16 32 16Z" fill="white"/>
</svg>
