<svg width="188" height="202" viewBox="0 0 188 202" fill="none" xmlns="http://www.w3.org/2000/svg">
<path fill-rule="evenodd" clip-rule="evenodd" d="M54.8334 -26.25C48.6008 -26.25 42.6235 -22.9708 38.2164 -17.1337C33.8093 -11.2966 31.3334 -3.37987 31.3334 4.875V161.932C31.3327 164.658 31.8727 167.336 32.8993 169.699C33.9259 172.062 35.4032 174.026 37.1832 175.395C38.9632 176.764 40.9834 177.49 43.0417 177.499C45.1 177.509 47.1241 176.803 48.9114 175.45L90.1147 144.263C91.298 143.368 92.6373 142.897 94 142.897C95.3628 142.897 96.702 143.368 97.8854 144.263L139.089 175.45C140.876 176.803 142.9 177.509 144.958 177.499C147.017 177.49 149.037 176.764 150.817 175.395C152.597 174.026 154.074 172.062 155.101 169.699C156.127 167.336 156.667 164.658 156.667 161.932V4.875C156.667 -3.37987 154.191 -11.2966 149.784 -17.1337C145.377 -22.9708 139.399 -26.25 133.167 -26.25H54.8334Z" fill="#044B53"/>
<path d="M93.5969 50.6245L87.9517 46.0581L83.113 43.7748H79.0807L75.4517 45.297M65.7743 57.4742L69.4033 51.5759L73.6372 46.0581L75.4517 45.297M65.7743 57.4742L62.1452 66.0363L60.3307 73.2665V76.6913L62.1452 79.7356L73.6372 91.342L76.863 95.3377L81.0969 97.4306H85.1291L89.7662 96.0988L93.5969 93.435M65.7743 57.4742H58.7178L55.2904 55.7618L52.6694 51.5759L51.6614 46.0581L52.6694 41.3013L57.7098 38.0668H63.5565L70.613 40.5403L75.4517 45.297" stroke="white" stroke-width="3" stroke-linecap="round" stroke-linejoin="round"/>
<path d="M52.871 52.9078L48.2339 58.2354L44 68.3196L53.6774 63.9434L46.621 70.6028L45.0081 83.5411L47.4274 87.3465L50.0484 78.5941L48.2339 88.2978L52.871 98.9529L58.7177 103.71L61.3387 105.422L57.7097 94.767L62.3468 105.993L71.621 113.604L72.629 115.316V105.041L76.2581 112.272L83.1129 115.316L80.4919 109.227L79.2823 102.187L79.6855 99.5237L80.4919 98.0015V99.5237L82.3065 103.139L84.7258 105.993L88.3548 108.276L92.9919 109.227H94.6048" stroke="white" stroke-width="3" stroke-linecap="round"/>
<path d="M81.9033 112.652L89.5712 120.852L94.8065 126.161" stroke="white" stroke-width="3" stroke-linejoin="round"/>
<path d="M66.7823 38.828V30.8367L94.4033 21.3232" stroke="white" stroke-width="3"/>
<path d="M62.1454 38.0668L48.0325 31.788L94.6051 12" stroke="white" stroke-width="3"/>
<path d="M83.7178 68.3196L82.5081 64.8948M82.5081 64.8948L82.1048 63.7532L77.6694 63.1824L74.2419 64.324L76.2581 67.7488L79.6855 69.4612L82.9113 67.7488L80.6936 65.8461L75.6532 64.324L80.6936 64.8948H82.5081ZM80.0887 68.7002L78.4758 67.178L76.2581 64.8948L81.2984 67.7488" stroke="white" stroke-width="3"/>
<path d="M72.4275 57.6646L77.871 55.6798M77.871 55.6798L81.2985 54.4301L81.9033 55.9522L78.6775 55.7343L77.871 55.6798Z" stroke="white" stroke-width="3" stroke-linecap="round" stroke-linejoin="round"/>
<path d="M93.0264 82.0139L92.8562 85.3869L87.7971 82.4141L93.0264 82.0139Z" stroke="white" stroke-width="3" stroke-linecap="round" stroke-linejoin="round"/>
<path d="M94.4031 50.6245L100.048 46.0581L104.887 43.7748H108.919L112.548 45.297M122.226 57.4742L118.597 51.5759L114.363 46.0581L112.548 45.297M122.226 57.4742L125.855 66.0363L127.669 73.2665V76.6913L125.855 79.7356L114.363 91.342L111.137 95.3377L106.903 97.4306H102.871L98.2338 96.0988L94.4031 93.435M122.226 57.4742H129.282L132.71 55.7618L135.331 51.5759L136.339 46.0581L135.331 41.3013L130.29 38.0668H124.443L117.387 40.5403L112.548 45.297" stroke="white" stroke-width="3" stroke-linecap="round" stroke-linejoin="round"/>
<path d="M135.129 52.9078L139.766 58.2354L144 68.3196L134.323 63.9434L141.379 70.6028L142.992 83.5411L140.573 87.3465L137.952 78.5941L139.766 88.2978L135.129 98.9529L129.282 103.71L126.46 105.612L130.29 94.767L125.653 105.993L116.379 113.604L115.371 115.316V105.041L111.742 112.272L104.887 115.316L107.508 109.227L108.718 102.187L108.315 99.5237L107.508 98.0015V99.5237L105.694 103.139L103.274 105.993L99.6453 108.276L95.0082 109.227H93.3953" stroke="white" stroke-width="3" stroke-linecap="round"/>
<path d="M106.097 112.843L98.0323 121.405L93.5968 125.971" stroke="white" stroke-width="3" stroke-linejoin="round"/>
<path d="M121.218 38.828V30.8367L93.7983 21.3232" stroke="white" stroke-width="3"/>
<path d="M125.855 38.0668L139.968 31.788L93.7985 12" stroke="white" stroke-width="3"/>
<path d="M104.081 68.3196L105.492 64.8948M105.492 64.8948L105.895 63.7532L110.331 63.1824L113.758 64.324L111.742 67.7488L108.315 69.4612L105.089 67.7488L107.307 65.8461L112.347 64.324L107.307 64.8948H105.492ZM107.911 68.8904L109.524 67.178L111.742 64.8948L106.903 67.7488" stroke="white" stroke-width="3"/>
<path d="M115.573 57.6646L110.129 55.6798M110.129 55.6798L106.702 54.4301L106.097 55.9522L109.323 55.7343L110.129 55.6798Z" stroke="white" stroke-width="3" stroke-linecap="round" stroke-linejoin="round"/>
<path d="M94.8118 82.0015L95.0713 85.4295L100.203 82.4141L94.8118 82.0015Z" stroke="white" stroke-width="3" stroke-linecap="round"/>
</svg>
