<svg width="126" height="178" viewBox="0 0 126 178" fill="none" xmlns="http://www.w3.org/2000/svg">
<path fill-rule="evenodd" clip-rule="evenodd" d="M23.8334 -26.25C17.6008 -26.25 11.6235 -22.9708 7.21637 -17.1337C2.80926 -11.2966 0.333375 -3.37987 0.333375 4.875V161.932C0.332666 164.658 0.872658 167.336 1.89929 169.699C2.92593 172.062 4.40319 174.026 6.18317 175.395C7.96316 176.764 9.98343 177.49 12.0417 177.499C14.1 177.509 16.1241 176.803 17.9114 175.45L59.1147 144.263C60.298 143.368 61.6373 142.897 63 142.897C64.3628 142.897 65.702 143.368 66.8854 144.263L108.089 175.45C109.876 176.803 111.9 177.509 113.958 177.499C116.017 177.49 118.037 176.764 119.817 175.395C121.597 174.026 123.074 172.062 124.101 169.699C125.127 167.336 125.667 164.658 125.667 161.932V4.875C125.667 -3.37987 123.191 -11.2966 118.784 -17.1337C114.377 -22.9708 108.399 -26.25 102.167 -26.25H23.8334Z" fill="#044B53"/>
</svg>
