<svg width="27" height="18" viewBox="0 0 27 18" fill="none" xmlns="http://www.w3.org/2000/svg">
<path d="M25.9052 17.8724H22.9576C21.8429 17.8724 21.5071 16.8821 19.5088 14.6891C17.7625 12.8432 17.025 12.6137 16.5832 12.6137C15.9723 12.6137 15.8056 12.7979 15.8056 13.7201V16.6271C15.8056 17.4134 15.5731 17.8738 13.7002 17.8738C11.8832 17.7399 10.1212 17.1345 8.55935 16.1074C6.99748 15.0803 5.68043 13.661 4.71668 11.9663C2.42916 8.842 0.837042 5.17597 0.0666809 1.25911C0.0666809 0.774607 0.234598 0.33544 1.07676 0.33544H4.02176C4.77868 0.33544 5.05122 0.70519 5.34831 1.55944C6.77818 6.17494 9.21814 10.1898 10.2088 10.1898C10.5886 10.1898 10.7539 10.0056 10.7539 8.96719V4.21286C10.6286 2.04394 9.57852 1.86119 9.57852 1.07636C9.5918 0.869298 9.67816 0.676075 9.81925 0.53773C9.96034 0.399385 10.145 0.326817 10.3341 0.33544H14.9635C15.5964 0.33544 15.8056 0.681106 15.8056 1.51127V7.92877C15.8056 8.62152 16.0769 8.85102 16.2681 8.85102C16.6478 8.85102 16.9397 8.62152 17.6359 7.85936C19.1277 5.86279 20.3468 3.63898 21.2552 1.25769C21.3477 0.971472 21.5233 0.726428 21.7549 0.560108C21.9866 0.393787 22.2616 0.315364 22.5378 0.336856H25.4841C26.3676 0.336856 26.5549 0.821357 26.3676 1.51269C25.2957 4.14528 23.9698 6.64437 22.4125 8.96719C22.0948 9.49844 21.9682 9.77469 22.4125 10.398C22.7044 10.8825 23.7378 11.8289 24.4314 12.7284C25.4415 13.8334 26.2798 15.1113 26.914 16.5109C27.1671 17.4119 26.7461 17.8724 25.9052 17.8724Z" fill="white"/>
</svg>
